<svg xmlns="http://www.w3.org/2000/svg" width="920" height="520" viewBox="0 0 920 520">
<style>
text { font-family: Arial, sans-serif; fill: #1f2933; }
.title { font-size: 22px; font-weight: 700; }
.axis { stroke: #34495e; stroke-width: 1.5; }
.grid { stroke: #d8dee6; stroke-width: 1; }
.curve { fill: none; stroke: #0f766e; stroke-width: 3; }
.point { fill: #115e59; }
.ref-blank { stroke: #64748b; stroke-width: 1.5; stroke-dasharray: 4 4; }
.ref-control { stroke: #b45309; stroke-width: 1.5; stroke-dasharray: 6 4; }
.label { font-size: 12px; }
.small { font-size: 11px; }
</style>
<rect x="0" y="0" width="920" height="520" fill="#ffffff"/>
<text class="title" x="72" y="26">1803271274 | ATM-AVI | MIC &gt;64/4</text>
<line class="grid" x1="72" y1="424.00" x2="884" y2="424.00"/>
<text class="label" x="62" y="428.00" text-anchor="end">0.00</text>
<line class="grid" x1="72" y1="359.33" x2="884" y2="359.33"/>
<text class="label" x="62" y="363.33" text-anchor="end">0.11</text>
<line class="grid" x1="72" y1="294.67" x2="884" y2="294.67"/>
<text class="label" x="62" y="298.67" text-anchor="end">0.23</text>
<line class="grid" x1="72" y1="230.00" x2="884" y2="230.00"/>
<text class="label" x="62" y="234.00" text-anchor="end">0.34</text>
<line class="grid" x1="72" y1="165.33" x2="884" y2="165.33"/>
<text class="label" x="62" y="169.33" text-anchor="end">0.45</text>
<line class="grid" x1="72" y1="100.67" x2="884" y2="100.67"/>
<text class="label" x="62" y="104.67" text-anchor="end">0.57</text>
<line class="grid" x1="72" y1="36.00" x2="884" y2="36.00"/>
<text class="label" x="62" y="40.00" text-anchor="end">0.68</text>
<line class="axis" x1="72" y1="36" x2="72" y2="424"/>
<line class="axis" x1="72" y1="424" x2="884" y2="424"/>
<line class="ref-blank" x1="72" y1="426.24" x2="884" y2="426.24"/>
<text class="small" x="884" y="420.24" text-anchor="end">blank -0.004</text>
<line class="ref-control" x1="72" y1="86.90" x2="884" y2="86.90"/>
<text class="small" x="884" y="80.90" text-anchor="end">control 0.593</text>
<polyline class="curve" points="72.00,360.59 153.20,351.30 234.40,337.07 315.60,336.80 396.80,344.61 478.00,321.49 559.20,325.45 640.40,325.85 721.60,350.70 802.80,372.95 884.00,353.26"/>
<circle class="point" cx="72.00" cy="360.59" r="4.2"/>
<text class="small" x="72.00" y="442" text-anchor="middle">64/4</text>
<circle class="point" cx="153.20" cy="351.30" r="4.2"/>
<text class="small" x="153.20" y="442" text-anchor="middle">32/4</text>
<circle class="point" cx="234.40" cy="337.07" r="4.2"/>
<text class="small" x="234.40" y="442" text-anchor="middle">16/4</text>
<circle class="point" cx="315.60" cy="336.80" r="4.2"/>
<text class="small" x="315.60" y="442" text-anchor="middle">8/4</text>
<circle class="point" cx="396.80" cy="344.61" r="4.2"/>
<text class="small" x="396.80" y="442" text-anchor="middle">4/4</text>
<circle class="point" cx="478.00" cy="321.49" r="4.2"/>
<text class="small" x="478.00" y="442" text-anchor="middle">2/4</text>
<circle class="point" cx="559.20" cy="325.45" r="4.2"/>
<text class="small" x="559.20" y="442" text-anchor="middle">1/4</text>
<circle class="point" cx="640.40" cy="325.85" r="4.2"/>
<text class="small" x="640.40" y="442" text-anchor="middle">0.5/4</text>
<circle class="point" cx="721.60" cy="350.70" r="4.2"/>
<text class="small" x="721.60" y="442" text-anchor="middle">0.25/4</text>
<circle class="point" cx="802.80" cy="372.95" r="4.2"/>
<text class="small" x="802.80" y="442" text-anchor="middle">0.128/4</text>
<circle class="point" cx="884.00" cy="353.26" r="4.2"/>
<text class="small" x="884.00" y="442" text-anchor="middle">0.064/4</text>
<text class="label" x="478.00" y="492" text-anchor="middle">Concentration (ug/mL)</text>
<text class="label" transform="translate(22 230.00) rotate(-90)" text-anchor="middle">OD600</text>
</svg>