<svg xmlns="http://www.w3.org/2000/svg" width="920" height="520" viewBox="0 0 920 520">
<style>
text { font-family: Arial, sans-serif; fill: #1f2933; }
.title { font-size: 22px; font-weight: 700; }
.axis { stroke: #34495e; stroke-width: 1.5; }
.grid { stroke: #d8dee6; stroke-width: 1; }
.curve { fill: none; stroke: #0f766e; stroke-width: 3; }
.point { fill: #115e59; }
.ref-blank { stroke: #64748b; stroke-width: 1.5; stroke-dasharray: 4 4; }
.ref-control { stroke: #b45309; stroke-width: 1.5; stroke-dasharray: 6 4; }
.label { font-size: 12px; }
.small { font-size: 11px; }
</style>
<rect x="0" y="0" width="920" height="520" fill="#ffffff"/>
<text class="title" x="72" y="26">1803271274 | TGC | MIC 2</text>
<line class="grid" x1="72" y1="424.00" x2="884" y2="424.00"/>
<text class="label" x="62" y="428.00" text-anchor="end">0.00</text>
<line class="grid" x1="72" y1="359.33" x2="884" y2="359.33"/>
<text class="label" x="62" y="363.33" text-anchor="end">0.11</text>
<line class="grid" x1="72" y1="294.67" x2="884" y2="294.67"/>
<text class="label" x="62" y="298.67" text-anchor="end">0.21</text>
<line class="grid" x1="72" y1="230.00" x2="884" y2="230.00"/>
<text class="label" x="62" y="234.00" text-anchor="end">0.32</text>
<line class="grid" x1="72" y1="165.33" x2="884" y2="165.33"/>
<text class="label" x="62" y="169.33" text-anchor="end">0.43</text>
<line class="grid" x1="72" y1="100.67" x2="884" y2="100.67"/>
<text class="label" x="62" y="104.67" text-anchor="end">0.53</text>
<line class="grid" x1="72" y1="36.00" x2="884" y2="36.00"/>
<text class="label" x="62" y="40.00" text-anchor="end">0.64</text>
<line class="axis" x1="72" y1="36" x2="72" y2="424"/>
<line class="axis" x1="72" y1="424" x2="884" y2="424"/>
<line class="ref-blank" x1="72" y1="424.77" x2="884" y2="424.77"/>
<text class="small" x="884" y="418.77" text-anchor="end">blank -0.001</text>
<line class="ref-control" x1="72" y1="86.71" x2="884" y2="86.71"/>
<text class="small" x="884" y="80.71" text-anchor="end">control 0.555</text>
<polyline class="curve" points="72.00,410.01 153.20,403.41 234.40,399.10 315.60,390.82 396.80,365.59 478.00,255.22 559.20,173.63 640.40,181.61 721.60,140.15 802.80,195.24 884.00,206.35"/>
<circle class="point" cx="72.00" cy="410.01" r="4.2"/>
<text class="small" x="72.00" y="442" text-anchor="middle">16</text>
<circle class="point" cx="153.20" cy="403.41" r="4.2"/>
<text class="small" x="153.20" y="442" text-anchor="middle">8</text>
<circle class="point" cx="234.40" cy="399.10" r="4.2"/>
<text class="small" x="234.40" y="442" text-anchor="middle">4</text>
<circle class="point" cx="315.60" cy="390.82" r="4.2"/>
<text class="small" x="315.60" y="442" text-anchor="middle">2</text>
<circle class="point" cx="396.80" cy="365.59" r="4.2"/>
<text class="small" x="396.80" y="442" text-anchor="middle">1</text>
<circle class="point" cx="478.00" cy="255.22" r="4.2"/>
<text class="small" x="478.00" y="442" text-anchor="middle">0.5</text>
<circle class="point" cx="559.20" cy="173.63" r="4.2"/>
<text class="small" x="559.20" y="442" text-anchor="middle">0.25</text>
<circle class="point" cx="640.40" cy="181.61" r="4.2"/>
<text class="small" x="640.40" y="442" text-anchor="middle">0.125</text>
<circle class="point" cx="721.60" cy="140.15" r="4.2"/>
<text class="small" x="721.60" y="442" text-anchor="middle">0.064</text>
<circle class="point" cx="802.80" cy="195.24" r="4.2"/>
<text class="small" x="802.80" y="442" text-anchor="middle">0.032</text>
<circle class="point" cx="884.00" cy="206.35" r="4.2"/>
<text class="small" x="884.00" y="442" text-anchor="middle">0.016</text>
<text class="label" x="478.00" y="492" text-anchor="middle">Concentration (ug/mL)</text>
<text class="label" transform="translate(22 230.00) rotate(-90)" text-anchor="middle">OD600</text>
</svg>