<svg xmlns="http://www.w3.org/2000/svg" width="920" height="520" viewBox="0 0 920 520">
<style>
text { font-family: Arial, sans-serif; fill: #1f2933; }
.title { font-size: 22px; font-weight: 700; }
.axis { stroke: #34495e; stroke-width: 1.5; }
.grid { stroke: #d8dee6; stroke-width: 1; }
.curve { fill: none; stroke: #0f766e; stroke-width: 3; }
.point { fill: #115e59; }
.ref-blank { stroke: #64748b; stroke-width: 1.5; stroke-dasharray: 4 4; }
.ref-control { stroke: #b45309; stroke-width: 1.5; stroke-dasharray: 6 4; }
.label { font-size: 12px; }
.small { font-size: 11px; }
</style>
<rect x="0" y="0" width="920" height="520" fill="#ffffff"/>
<text class="title" x="72" y="26">1803271274 | SXT | MIC &gt;16/304</text>
<line class="grid" x1="72" y1="424.00" x2="884" y2="424.00"/>
<text class="label" x="62" y="428.00" text-anchor="end">0.00</text>
<line class="grid" x1="72" y1="359.33" x2="884" y2="359.33"/>
<text class="label" x="62" y="363.33" text-anchor="end">0.11</text>
<line class="grid" x1="72" y1="294.67" x2="884" y2="294.67"/>
<text class="label" x="62" y="298.67" text-anchor="end">0.23</text>
<line class="grid" x1="72" y1="230.00" x2="884" y2="230.00"/>
<text class="label" x="62" y="234.00" text-anchor="end">0.34</text>
<line class="grid" x1="72" y1="165.33" x2="884" y2="165.33"/>
<text class="label" x="62" y="169.33" text-anchor="end">0.46</text>
<line class="grid" x1="72" y1="100.67" x2="884" y2="100.67"/>
<text class="label" x="62" y="104.67" text-anchor="end">0.57</text>
<line class="grid" x1="72" y1="36.00" x2="884" y2="36.00"/>
<text class="label" x="62" y="40.00" text-anchor="end">0.68</text>
<line class="axis" x1="72" y1="36" x2="72" y2="424"/>
<line class="axis" x1="72" y1="424" x2="884" y2="424"/>
<line class="ref-blank" x1="72" y1="427.41" x2="884" y2="427.41"/>
<text class="small" x="884" y="421.41" text-anchor="end">blank -0.006</text>
<line class="ref-control" x1="72" y1="87.05" x2="884" y2="87.05"/>
<text class="small" x="884" y="81.05" text-anchor="end">control 0.593</text>
<polyline class="curve" points="72.00,337.66 153.20,299.76 234.40,286.29 315.60,286.35 396.80,284.53 478.00,263.29 559.20,247.62 640.40,202.64 721.60,158.40 802.80,102.99 884.00,92.02"/>
<circle class="point" cx="72.00" cy="337.66" r="4.2"/>
<text class="small" x="72.00" y="442" text-anchor="middle">16/304</text>
<circle class="point" cx="153.20" cy="299.76" r="4.2"/>
<text class="small" x="153.20" y="442" text-anchor="middle">8/152</text>
<circle class="point" cx="234.40" cy="286.29" r="4.2"/>
<text class="small" x="234.40" y="442" text-anchor="middle">4/76</text>
<circle class="point" cx="315.60" cy="286.35" r="4.2"/>
<text class="small" x="315.60" y="442" text-anchor="middle">2/38</text>
<circle class="point" cx="396.80" cy="284.53" r="4.2"/>
<text class="small" x="396.80" y="442" text-anchor="middle">1/19</text>
<circle class="point" cx="478.00" cy="263.29" r="4.2"/>
<text class="small" x="478.00" y="442" text-anchor="middle">0.5/8.5</text>
<circle class="point" cx="559.20" cy="247.62" r="4.2"/>
<text class="small" x="559.20" y="442" text-anchor="middle">0.25/4.25</text>
<circle class="point" cx="640.40" cy="202.64" r="4.2"/>
<text class="small" x="640.40" y="442" text-anchor="middle">0.125/2.125</text>
<circle class="point" cx="721.60" cy="158.40" r="4.2"/>
<text class="small" x="721.60" y="442" text-anchor="middle">0.064/1.216</text>
<circle class="point" cx="802.80" cy="102.99" r="4.2"/>
<text class="small" x="802.80" y="442" text-anchor="middle">0.032/0.608</text>
<circle class="point" cx="884.00" cy="92.02" r="4.2"/>
<text class="small" x="884.00" y="442" text-anchor="middle">0.016/0.304</text>
<text class="label" x="478.00" y="492" text-anchor="middle">Concentration (ug/mL)</text>
<text class="label" transform="translate(22 230.00) rotate(-90)" text-anchor="middle">OD600</text>
</svg>