<svg xmlns="http://www.w3.org/2000/svg" width="920" height="520" viewBox="0 0 920 520">
<style>
text { font-family: Arial, sans-serif; fill: #1f2933; }
.title { font-size: 22px; font-weight: 700; }
.axis { stroke: #34495e; stroke-width: 1.5; }
.grid { stroke: #d8dee6; stroke-width: 1; }
.curve { fill: none; stroke: #0f766e; stroke-width: 3; }
.point { fill: #115e59; }
.control { stroke: #b45309; stroke-width: 1.5; stroke-dasharray: 6 4; }
.label { font-size: 12px; }
.small { font-size: 11px; }
</style>
<rect x="0" y="0" width="920" height="520" fill="#ffffff"/>
<text class="title" x="72" y="26">1807161114 | LVX | MIC 1</text>
<line class="grid" x1="72" y1="424.00" x2="884" y2="424.00"/>
<text class="label" x="62" y="428.00" text-anchor="end">-0.11</text>
<line class="grid" x1="72" y1="359.33" x2="884" y2="359.33"/>
<text class="label" x="62" y="363.33" text-anchor="end">0.03</text>
<line class="grid" x1="72" y1="294.67" x2="884" y2="294.67"/>
<text class="label" x="62" y="298.67" text-anchor="end">0.17</text>
<line class="grid" x1="72" y1="230.00" x2="884" y2="230.00"/>
<text class="label" x="62" y="234.00" text-anchor="end">0.30</text>
<line class="grid" x1="72" y1="165.33" x2="884" y2="165.33"/>
<text class="label" x="62" y="169.33" text-anchor="end">0.44</text>
<line class="grid" x1="72" y1="100.67" x2="884" y2="100.67"/>
<text class="label" x="62" y="104.67" text-anchor="end">0.58</text>
<line class="grid" x1="72" y1="36.00" x2="884" y2="36.00"/>
<text class="label" x="62" y="40.00" text-anchor="end">0.72</text>
<line class="axis" x1="72" y1="36" x2="72" y2="424"/>
<line class="axis" x1="72" y1="424" x2="884" y2="424"/>
<line class="control" x1="72" y1="109.77" x2="884" y2="109.77"/>
<text class="small" x="884" y="103.77" text-anchor="end">control 0.560</text>
<polyline class="curve" points="72.00,392.96 153.20,376.10 234.40,363.76 315.60,337.22 396.80,311.77 478.00,283.51 559.20,271.49 640.40,169.06 721.60,114.57 802.80,82.56 884.00,95.21"/>
<circle class="point" cx="72.00" cy="392.96" r="4.2"/>
<text class="small" x="72.00" y="442" text-anchor="middle">8</text>
<circle class="point" cx="153.20" cy="376.10" r="4.2"/>
<text class="small" x="153.20" y="442" text-anchor="middle">4</text>
<circle class="point" cx="234.40" cy="363.76" r="4.2"/>
<text class="small" x="234.40" y="442" text-anchor="middle">2</text>
<circle class="point" cx="315.60" cy="337.22" r="4.2"/>
<text class="small" x="315.60" y="442" text-anchor="middle">1</text>
<circle class="point" cx="396.80" cy="311.77" r="4.2"/>
<text class="small" x="396.80" y="442" text-anchor="middle">0.5</text>
<circle class="point" cx="478.00" cy="283.51" r="4.2"/>
<text class="small" x="478.00" y="442" text-anchor="middle">0.25</text>
<circle class="point" cx="559.20" cy="271.49" r="4.2"/>
<text class="small" x="559.20" y="442" text-anchor="middle">0.125</text>
<circle class="point" cx="640.40" cy="169.06" r="4.2"/>
<text class="small" x="640.40" y="442" text-anchor="middle">0.064</text>
<circle class="point" cx="721.60" cy="114.57" r="4.2"/>
<text class="small" x="721.60" y="442" text-anchor="middle">0.032</text>
<circle class="point" cx="802.80" cy="82.56" r="4.2"/>
<text class="small" x="802.80" y="442" text-anchor="middle">0.016</text>
<circle class="point" cx="884.00" cy="95.21" r="4.2"/>
<text class="small" x="884.00" y="442" text-anchor="middle">0.008</text>
<text class="label" x="478.00" y="492" text-anchor="middle">Concentration (ug/mL)</text>
<text class="label" transform="translate(22 230.00) rotate(-90)" text-anchor="middle">OD630 after blank subtraction</text>
</svg>